<?xml version="1.0" standalone="no"?>
<!DOCTYPE svg PUBLIC "-//W3C//DTD SVG 20010904//EN"
 "http://www.w3.org/TR/2001/REC-SVG-20010904/DTD/svg10.dtd">
<svg version="1.0" xmlns="http://www.w3.org/2000/svg"
 width="512.000000pt" height="512.000000pt" viewBox="0 0 512.000000 512.000000"
 preserveAspectRatio="xMidYMid meet">
<metadata>
Created by potrace 1.14, written by Peter Selinger 2001-2017
</metadata>
<g transform="translate(0.000000,512.000000) scale(0.100000,-0.100000)"
fill="#000000" stroke="none">
<path d="M505 5103 c-42 -22 -64 -43 -83 -78 -14 -27 -16 -142 -17 -1025 l-2
-995 -36 -97 c-54 -145 -97 -325 -115 -478 -9 -84 -9 -396 0 -480 10 -85 32
-196 59 -295 29 -110 32 -125 25 -125 -27 0 -205 -44 -222 -55 -33 -21 -45
-67 -28 -101 9 -16 21 -32 27 -36 20 -13 77 -9 171 12 50 11 97 20 105 20 10
0 38 -44 75 -116 33 -63 74 -138 92 -166 l32 -52 -77 -32 c-238 -99 -277 -126
-266 -184 16 -85 63 -90 207 -22 57 27 133 59 169 72 75 27 62 33 141 -61 333
-397 876 -699 1388 -775 19 -3 41 -7 48 -9 57 -19 473 -27 627 -12 222 22 523
103 720 195 161 75 366 193 441 255 10 9 51 41 89 72 89 71 242 222 307 301
l50 62 61 -25 c65 -25 74 -29 200 -87 42 -20 90 -36 106 -36 42 0 72 29 76 72
4 47 -19 71 -104 110 -36 16 -88 40 -116 53 -27 14 -67 30 -87 37 l-37 13 45
75 c25 41 65 117 90 168 32 64 51 92 63 92 10 0 60 -9 111 -20 51 -11 108 -20
126 -20 37 0 73 31 75 64 4 74 -15 86 -208 127 -34 7 -60 16 -58 20 20 32 79
305 93 434 9 80 8 386 -1 455 -25 183 -65 351 -118 490 l-33 85 -1 995 c-2
1109 4 1030 -71 1086 -29 22 -46 28 -93 28 -62 1 -74 -5 -171 -84 -105 -85
-237 -193 -255 -208 -11 -9 -94 -77 -185 -151 -91 -74 -173 -142 -182 -150 -9
-9 -23 -21 -30 -26 -7 -6 -76 -61 -153 -124 -77 -63 -145 -118 -152 -123 -7
-6 -58 5 -139 32 -70 22 -139 42 -153 45 -14 3 -37 7 -51 10 -33 7 -184 33
-235 41 -69 10 -467 13 -535 3 -36 -5 -99 -14 -140 -20 -96 -13 -305 -65 -393
-96 l-68 -24 -42 33 c-23 18 -91 73 -152 123 -60 50 -135 111 -165 135 -30 25
-64 53 -75 62 -46 39 -396 325 -460 377 -38 31 -79 64 -89 73 -77 70 -160 93
-221 61z"/>
</g>
</svg>
